<svg xmlns="http://www.w3.org/2000/svg" viewBox="0 0 100 100">
  <!-- Background circle -->
  <circle cx="50" cy="50" r="46" fill="#1f2937" stroke="#374151" stroke-width="2"/>

  <!-- Laurel leaves - left side -->
  <g fill="#4b5563" opacity="0.8">
    <ellipse cx="18" cy="35" rx="4" ry="8" transform="rotate(-30 18 35)"/>
    <ellipse cx="14" cy="45" rx="4" ry="8" transform="rotate(-20 14 45)"/>
    <ellipse cx="12" cy="56" rx="4" ry="8" transform="rotate(-10 12 56)"/>
    <ellipse cx="14" cy="67" rx="4" ry="8" transform="rotate(10 14 67)"/>
    <ellipse cx="20" cy="76" rx="4" ry="7" transform="rotate(25 20 76)"/>
  </g>

  <!-- Laurel leaves - right side -->
  <g fill="#4b5563" opacity="0.8">
    <ellipse cx="82" cy="35" rx="4" ry="8" transform="rotate(30 82 35)"/>
    <ellipse cx="86" cy="45" rx="4" ry="8" transform="rotate(20 86 45)"/>
    <ellipse cx="88" cy="56" rx="4" ry="8" transform="rotate(10 88 56)"/>
    <ellipse cx="86" cy="67" rx="4" ry="8" transform="rotate(-10 86 67)"/>
    <ellipse cx="80" cy="76" rx="4" ry="7" transform="rotate(-25 80 76)"/>
  </g>

  <!-- Geometric A - outer -->
  <polygon
    points="50,18 26,78 36,78 50,42 64,78 74,78"
    fill="none"
    stroke="#9ca3af"
    stroke-width="4"
    stroke-linejoin="round"
  />

  <!-- A crossbar -->
  <line x1="36" y1="62" x2="64" y2="62" stroke="#9ca3af" stroke-width="4" stroke-linecap="round"/>

  <!-- Highlight accent -->
  <line x1="50" y1="22" x2="50" y2="32" stroke="#d1d5db" stroke-width="2" stroke-linecap="round"/>
</svg>
